<?xml version="1.0" standalone="no"?><!DOCTYPE svg PUBLIC "-//W3C//DTD SVG 1.1//EN" "http://www.w3.org/Graphics/SVG/1.1/DTD/svg11.dtd"><svg class="icon" width="200px" height="200.00px" viewBox="0 0 1024 1024" version="1.1" xmlns="http://www.w3.org/2000/svg"><path d="M1024 512c0 282.624-229.376 512-512 512S0 794.624 0 512 229.376 0 512 0s512 229.376 512 512z" fill="#FFD600" /><path d="M570.368 538.624c8.704 8.704 22.528 8.704 31.232 0 8.704-8.192 9.216-22.528 0.512-31.232l-85.504-85.504c-4.096-4.096-9.728-6.144-15.36-6.656-6.144 0-11.776 2.56-15.872 6.656L399.872 507.392c-8.704 8.704-8.704 22.528 0 31.232 8.704 8.704 22.528 8.704 31.232 0l47.616-47.616v143.36c0 12.288 9.728 22.016 22.016 22.016s22.016-9.728 22.016-22.016v-143.36l47.616 47.616z m162.304-114.688h21.504c7.68 0 13.824 6.144 13.824 13.312V675.84c0 73.728-60.416 133.12-134.144 133.12H396.8C318.976 808.96 256 746.496 256 669.184V349.184C256 275.456 315.904 215.04 390.656 215.04h159.232c7.68 0 13.824 6.144 13.824 13.824v95.744c0 54.272 44.544 98.816 99.84 99.328h69.12z m8.192-43.52h-74.24c-32.768 0-59.904-27.136-59.904-59.904V242.176c0-12.8 15.36-18.944 24.576-9.728l88.064 91.136 32.256 33.28c5.632 5.632 5.12 14.848-0.512 19.968-3.072 2.048-6.656 3.584-10.24 3.584z" fill="#FFFFFF" /></svg>