<?xml version="1.0" standalone="no"?><!DOCTYPE svg PUBLIC "-//W3C//DTD SVG 1.1//EN" "http://www.w3.org/Graphics/SVG/1.1/DTD/svg11.dtd"><svg class="icon" width="200px" height="200.00px" viewBox="0 0 1024 1024" version="1.1" xmlns="http://www.w3.org/2000/svg"><path d="M512 0c282.624 0 512 229.376 512 512s-229.376 512-512 512S0 794.624 0 512 229.376 0 512 0" fill="#AA00FF" /><path d="M410.624 541.184c0 12.288 10.24 22.016 22.528 22.016h147.456c12.288 0 22.528-9.728 22.528-22.016s-10.24-22.016-22.528-22.016H432.64c-12.288 0-22.016 9.728-22.016 22.016z m322.56-117.248h21.504c7.68 0 13.312 6.144 13.312 13.312V675.84c0 73.728-59.904 133.12-134.144 133.12H396.8C319.488 808.96 256 746.496 256 669.184V349.184C256 275.456 316.416 215.04 390.656 215.04h159.232c7.68 0 13.824 6.144 13.824 13.824v95.744c0 54.272 45.056 98.816 99.84 99.328h69.632z m8.192-43.52h-74.24c-32.768 0-59.904-27.136-59.904-59.904V242.176c0-12.8 15.36-18.944 24.576-9.728l60.416 62.464 59.392 61.952c5.632 5.632 5.12 14.848-0.512 19.968-2.56 2.048-6.144 3.584-9.728 3.584z" fill="#FFFFFF" /></svg>