
<svg class="icon" width="200px" height="200.00px" viewBox="0 0 1024 1024" version="1.1" xmlns="http://www.w3.org/2000/svg"><path d="M512 0c282.624 0 512 229.376 512 512s-229.376 512-512 512S0 794.624 0 512 229.376 0 512 0" fill="#FF0808" /><path d="M573.952 608.768c8.704-8.704 8.704-22.528 0-31.232l-36.352-36.352 36.352-36.352c8.704-8.704 8.704-22.528 0-31.232-8.192-8.704-22.016-9.216-30.72-1.024-0.512 0-0.512 0.512-1.024 1.024l-36.352 36.352-36.352-36.352c-8.192-8.704-21.504-8.704-30.208-1.024l-1.024 1.024c-8.704 8.704-8.704 22.528 0 31.232l36.352 36.352-36.352 36.352c-8.704 8.704-8.704 22.528 0 31.232 4.096 4.608 9.728 6.656 15.36 6.656s11.776-2.048 15.872-6.656l36.352-36.352 36.352 36.352c4.096 4.096 9.728 6.656 15.872 6.656 5.632 0 11.264-2.048 15.872-6.656z m158.72-184.832h21.504c7.68 0 13.824 6.144 13.824 13.312V675.84c0 73.728-59.904 133.12-134.144 133.12H396.8C318.976 808.96 256 746.496 256 669.184V349.184C256 275.456 316.416 215.04 390.656 215.04h159.232c7.68 0 13.824 6.144 13.824 13.824v95.744c0 54.272 45.056 98.816 99.84 99.328h69.12z m8.192-43.52h-74.24c-32.768 0-59.904-27.136-59.904-59.904V242.176c0-12.8 15.36-18.944 24.576-9.728 39.936 41.472 79.872 82.944 120.32 124.416 5.632 5.632 5.12 14.848-0.512 19.968-3.072 2.048-6.144 3.584-10.24 3.584z" fill="#FFFFFF" /></svg>
