<?xml version="1.0" standalone="no"?><!DOCTYPE svg PUBLIC "-//W3C//DTD SVG 1.1//EN" "http://www.w3.org/Graphics/SVG/1.1/DTD/svg11.dtd"><svg class="icon" width="200px" height="200.00px" viewBox="0 0 1024 1024" version="1.1" xmlns="http://www.w3.org/2000/svg"><path d="M512 0c282.624 0 512 229.376 512 512s-229.376 512-512 512S0 794.624 0 512 229.376 0 512 0" fill="#AA00FF" /><path d="M596.48 532.48c0 46.08-37.888 83.456-84.48 83.456S427.52 578.56 427.52 532.48s37.376-83.456 83.968-83.968c46.592 0 84.992 37.376 84.992 83.968z" fill="#FFFFFF" /><path d="M709.12 281.6h-394.24C268.288 281.6 230.4 319.488 230.4 366.08V670.72c0 46.592 37.888 84.48 84.48 84.48h394.24c46.592 0 84.48-37.888 84.48-84.48V366.08c0-46.592-37.888-84.48-84.48-84.48zM332.8 422.4c-20.992 0-38.4-17.408-38.4-38.4s17.408-38.4 38.4-38.4 38.4 17.408 38.4 38.4-17.408 38.4-38.4 38.4z m178.176 235.52c-69.632-0.512-126.464-56.832-125.952-125.952 0-69.12 57.344-124.928 126.976-124.928 70.144 0 126.464 56.32 126.464 125.44s-56.832 125.44-127.488 125.44z" fill="#FFFFFF" /><path d="M596.48 532.48c0 46.08-37.888 83.456-84.48 83.456S427.52 578.56 427.52 532.48s37.376-83.456 83.968-83.968c46.592 0 84.992 37.376 84.992 83.968z" fill="#FFFFFF" /><path d="M596.48 532.48c0 46.08-37.888 83.456-84.48 83.456S427.52 578.56 427.52 532.48s37.376-83.456 83.968-83.968c46.592 0 84.992 37.376 84.992 83.968z" fill="#FFFFFF" /></svg>