<?xml version="1.0" standalone="no"?><!DOCTYPE svg PUBLIC "-//W3C//DTD SVG 1.1//EN" "http://www.w3.org/Graphics/SVG/1.1/DTD/svg11.dtd"><svg class="icon" width="200px" height="200.00px" viewBox="0 0 1024 1024" version="1.1" xmlns="http://www.w3.org/2000/svg"><path d="M512 0c282.624 0 512 229.376 512 512s-229.376 512-512 512S0 794.624 0 512 229.376 0 512 0" fill="#FF0808" /><path d="M624.128 538.624c79.36 0 143.872 64.512 143.872 143.872 0 39.936-32.768 72.704-72.704 72.704H328.704c-39.936 0-72.704-32.768-72.704-72.704 0-79.36 64.512-143.872 143.872-143.872h224.256z" fill="#FFFFFF" /><path d="M512 371.2m-128 0a128 128 0 1 0 256 0 128 128 0 1 0-256 0Z" fill="#FFFFFF" /></svg>