<?xml version="1.0" standalone="no"?><!DOCTYPE svg PUBLIC "-//W3C//DTD SVG 1.1//EN" "http://www.w3.org/Graphics/SVG/1.1/DTD/svg11.dtd"><svg class="icon" width="200px" height="200.00px" viewBox="0 0 1024 1024" version="1.1" xmlns="http://www.w3.org/2000/svg"><path d="M1024 512c0 282.624-229.376 512-512 512S0 794.624 0 512 229.376 0 512 0s512 229.376 512 512z" fill="#FFD600" /><path d="M742.912 652.8l-10.24 61.44c-2.048 9.216-10.24 15.36-19.456 15.36H310.784c-9.216 0-17.408-6.144-19.456-15.36l-10.24-61.44h461.824zM511.488 294.4c6.656-0.512 12.8 2.56 16.384 7.68l113.664 143.36c9.216 11.264 25.6 14.336 37.888 6.144L762.88 396.8c6.656-4.608 15.872-4.608 22.528 0 6.656 4.608 10.24 12.8 8.192 20.992l-35.84 161.792c-3.072 12.8-14.336 22.016-27.648 22.016h-435.2c-13.312 0-24.576-9.216-27.648-22.016l-35.84-161.792c-2.048-7.68 1.024-15.872 7.68-20.48s14.848-5.12 22.016-1.024l101.888 57.344c12.8 7.168 29.184 3.584 37.376-8.704l95.744-141.824c2.56-5.12 8.704-8.704 15.36-8.704z" fill="#FFFFFF" /></svg>