<?xml version="1.0" standalone="no"?><!DOCTYPE svg PUBLIC "-//W3C//DTD SVG 1.1//EN" "http://www.w3.org/Graphics/SVG/1.1/DTD/svg11.dtd"><svg class="icon" width="200px" height="200.00px" viewBox="0 0 1024 1024" version="1.1" xmlns="http://www.w3.org/2000/svg"><path d="M1024 512c0 282.624-229.376 512-512 512S0 794.624 0 512 229.376 0 512 0s512 229.376 512 512z" fill="#FF6D00" /><path d="M691.2 256H332.8c-42.496 0-76.8 34.304-76.8 76.8v426.496c0 2.56 0.512 5.12 1.024 7.168 4.096 13.312 18.432 20.992 31.744 17.408l219.136-66.048c2.56-0.512 5.12-0.512 7.168 0l219.136 66.048c2.56 0.512 5.12 1.024 7.168 1.024 14.336 0 25.6-11.264 25.6-25.6V332.8c1.024-42.496-33.28-76.8-75.776-76.8z m-56.32 223.744l-48.64 47.616 11.264 66.048c1.024 6.656-2.048 13.312-7.68 17.408-5.632 4.096-13.312 4.096-19.456 1.024l-57.856-30.72-57.856 30.72c-6.144 3.584-13.824 3.072-19.456-1.024-5.632-3.584-8.704-10.752-7.68-17.408l11.264-66.048-49.664-47.616c-4.608-4.608-6.656-11.776-4.608-17.92 2.56-6.144 8.192-10.752 14.848-11.776L465.92 440.32l29.184-58.88c3.072-6.144 9.728-10.24 16.896-10.24s13.312 4.096 16.896 10.24l28.672 58.88 66.56 9.728c6.656 1.024 12.288 5.632 14.848 11.776 2.048 6.144 0.512 13.312-4.096 17.92z" fill="#FFFFFF" /></svg>