<?xml version="1.0" standalone="no"?><!DOCTYPE svg PUBLIC "-//W3C//DTD SVG 1.1//EN" "http://www.w3.org/Graphics/SVG/1.1/DTD/svg11.dtd"><svg class="icon" width="200px" height="200.00px" viewBox="0 0 1024 1024" version="1.1" xmlns="http://www.w3.org/2000/svg"><path d="M1024 512c0 282.624-229.376 512-512 512S0 794.624 0 512 229.376 0 512 0s512 229.376 512 512z" fill="#00C853" /><path d="M512 243.2C363.52 243.2 243.2 363.52 243.2 512S363.52 780.8 512 780.8s268.8-120.32 268.8-268.8S660.48 243.2 512 243.2z m139.264 328.704l-0.512 2.048c-5.632 12.288-19.456 18.432-31.744 13.824l-2.048-0.512-115.2-51.2c-8.704-4.096-14.336-12.288-14.848-21.504V384c0-14.336 11.264-25.6 25.6-25.6 13.312 0 24.576 10.24 25.6 23.552v113.664l99.84 44.544c11.776 5.12 17.92 18.944 13.312 31.744z" fill="#FFFFFF" /></svg>