<?xml version="1.0" standalone="no"?><!DOCTYPE svg PUBLIC "-//W3C//DTD SVG 1.1//EN" "http://www.w3.org/Graphics/SVG/1.1/DTD/svg11.dtd"><svg class="icon" width="200px" height="200.00px" viewBox="0 0 1024 1024" version="1.1" xmlns="http://www.w3.org/2000/svg"><path d="M512 0c282.624 0 512 229.376 512 512s-229.376 512-512 512S0 794.624 0 512 229.376 0 512 0" fill="#AA00FF" /><path d="M654.848 282.624C605.184 232.96 538.112 204.8 468.48 204.8 322.56 204.8 204.8 324.096 204.8 471.04s117.76 266.24 263.68 266.24c145.408 0 263.68-119.296 263.68-266.24-0.512-70.656-28.16-138.24-77.312-188.416z m-186.368 348.16c-87.04 0-158.208-71.68-158.208-159.744s70.656-159.744 158.208-159.744c41.984 0 81.92 16.896 111.616 46.592 29.696 30.208 46.08 70.656 46.08 113.152 0 88.064-70.656 159.744-157.696 159.744zM727.552 685.568l78.336 63.488h1.536c15.872 15.872 15.872 41.984 0 58.368-15.872 15.872-40.96 15.872-56.832 0.512l-0.512-0.512-65.024-74.752c-12.8-12.8-12.8-33.792 0-46.592 11.264-12.288 30.72-12.288 42.496-0.512z" fill="#FFFFFF" /></svg>