<?xml version="1.0" standalone="no"?><!DOCTYPE svg PUBLIC "-//W3C//DTD SVG 1.1//EN" "http://www.w3.org/Graphics/SVG/1.1/DTD/svg11.dtd"><svg class="icon" width="200px" height="200.00px" viewBox="0 0 1024 1024" version="1.1" xmlns="http://www.w3.org/2000/svg"><path d="M1024 512c0 282.624-229.376 512-512 512S0 794.624 0 512 229.376 0 512 0s512 229.376 512 512z" fill="#FF6D00" /><path d="M728.064 277.504c-14.336-14.336-34.816-19.968-54.272-14.336L220.672 395.264c-19.968 5.632-35.328 22.016-38.912 43.008-4.096 20.992 10.24 48.128 28.16 59.392l141.824 87.04c14.336 8.704 33.28 6.656 45.568-5.632l162.304-163.328c7.68-8.192 20.992-8.704 29.184-0.512l0.512 0.512c8.192 8.192 8.192 21.504 0 30.208L426.496 609.28c-12.288 12.288-14.336 30.72-5.632 45.568l86.528 143.36c10.24 16.896 27.648 26.624 46.592 26.624 2.048 0 4.608 0 7.168-0.512 22.016-3.072 39.424-17.92 46.08-38.912L741.888 332.8c5.632-19.968 0.512-40.96-13.824-55.296z" fill="#FFFFFF" /></svg>