<?xml version="1.0" standalone="no"?><!DOCTYPE svg PUBLIC "-//W3C//DTD SVG 1.1//EN" "http://www.w3.org/Graphics/SVG/1.1/DTD/svg11.dtd"><svg class="icon" width="200px" height="200.00px" viewBox="0 0 1024 1024" version="1.1" xmlns="http://www.w3.org/2000/svg"><path d="M1024 512c0 282.624-229.376 512-512 512S0 794.624 0 512 229.376 0 512 0s512 229.376 512 512z" fill="#2962FF" /><path d="M788.992 461.312c-2.56-14.848-14.336-26.112-28.672-28.16-22.016-3.072-41.984-16.384-52.736-35.84-11.264-19.456-13.312-43.008-5.12-64 5.12-13.824 1.024-29.696-10.24-39.424-24.576-20.992-52.224-36.864-82.432-48.128-14.336-5.12-30.208-1.024-39.424 10.752-13.824 17.92-35.328 28.16-57.856 28.16s-44.032-10.24-57.856-28.16c-9.216-11.776-25.088-16.384-39.424-10.752-27.648 10.24-53.76 25.088-76.8 43.52-12.288 9.728-16.384 26.112-10.752 40.448 8.704 21.504 6.656 46.08-5.12 66.048-11.776 19.968-32.768 33.28-55.808 35.328-15.36 1.536-27.648 13.312-30.208 28.16-6.144 32.256-7.168 65.024-1.536 97.28 2.56 15.36 14.848 27.648 30.72 29.184 23.552 2.048 45.056 15.872 56.32 36.352 11.776 20.992 13.312 46.08 3.072 67.584-6.656 14.336-2.56 31.232 9.728 41.472 24.576 20.48 52.224 36.352 81.92 47.616 3.584 1.536 7.68 2.048 11.776 2.048 11.264 0 21.504-5.632 28.16-14.848 13.312-19.968 35.84-31.744 59.904-31.744 23.552 0 45.056 11.264 58.88 29.696 9.216 12.8 26.112 17.408 40.448 11.264 27.136-11.264 52.736-26.112 75.264-45.056 11.776-9.728 15.872-25.6 10.24-39.936-9.216-21.504-7.68-45.568 4.096-65.536 11.264-19.968 31.744-33.28 54.784-36.352 14.848-2.048 27.136-13.824 29.696-28.672 3.072-15.872 4.608-31.744 5.12-48.128-1.536-16.384-3.072-33.28-6.144-50.176zM512 606.72c-51.712 0-93.696-42.496-93.696-94.72s41.984-94.72 93.696-94.72c51.712 0 93.696 42.496 93.696 94.72s-41.984 94.72-93.696 94.72z" fill="#FFFFFF" /></svg>