<?xml version="1.0" standalone="no"?><!DOCTYPE svg PUBLIC "-//W3C//DTD SVG 1.1//EN" "http://www.w3.org/Graphics/SVG/1.1/DTD/svg11.dtd"><svg class="icon" width="200px" height="200.00px" viewBox="0 0 1024 1024" version="1.1" xmlns="http://www.w3.org/2000/svg"><path d="M1024 512c0 282.624-229.376 512-512 512S0 794.624 0 512 229.376 0 512 0s512 229.376 512 512z" fill="#00C853" /><path d="M712.192 441.856h-35.328v-47.104c0-90.624-73.728-164.352-164.864-164.352S347.136 304.128 347.136 394.752v47.104h-35.328c-19.456 0-35.328 15.872-35.328 35.328v281.6c0 19.456 15.872 35.328 35.328 35.328h400.384c19.456 0 35.328-15.872 35.328-35.328v-281.6c0-19.968-15.872-35.328-35.328-35.328zM394.24 394.752c0-64.512 52.736-117.248 117.76-117.248s117.76 52.736 117.76 117.248v47.104H394.24v-47.104z m141.312 267.264c0 7.68-6.144 14.336-14.336 14.336h-18.944c-7.68 0-14.336-6.144-14.336-14.336v-89.088c0-7.68 6.144-14.336 14.336-14.336h18.944c7.68 0 14.336 6.144 14.336 14.336v89.088z" fill="#FFFFFF" /></svg>