<?xml version="1.0" standalone="no"?><!DOCTYPE svg PUBLIC "-//W3C//DTD SVG 1.1//EN" "http://www.w3.org/Graphics/SVG/1.1/DTD/svg11.dtd"><svg class="icon" width="200px" height="200.00px" viewBox="0 0 1024 1024" version="1.1" xmlns="http://www.w3.org/2000/svg"><path d="M1024 512c0 282.624-229.376 512-512 512S0 794.624 0 512 229.376 0 512 0s512 229.376 512 512z" fill="#FF6D00" /><path d="M721.408 292.864h-41.984c-11.264 0-20.992 9.728-20.992 20.992v41.472c0 11.264-9.216 20.992-20.992 20.992h-41.984c-11.264 0-20.992-9.728-20.992-20.992v-41.472c0-11.264-9.216-20.992-20.992-20.992H470.016c-11.264 0-20.992 9.728-20.992 20.992v41.472c0 11.264-9.216 20.992-20.992 20.992h-41.984c-11.264 0-20.992-9.728-20.992-20.992v-41.984c0-11.264-9.216-20.992-20.48-20.992H302.08c-11.264 0-20.48 9.728-20.48 20.992v104.448h460.288V313.344c0.512-11.264-8.704-20.48-20.48-20.48z" fill="#FFFFFF" /><path d="M608.256 355.328h16.384c6.656 0 12.288-5.632 12.288-12.8V263.68c0-6.656-5.632-12.8-12.288-12.8h-16.384c-6.656 0-12.288 5.632-12.288 12.8V343.04c0 6.656 5.12 12.288 12.288 12.288zM281.6 731.136c0 17.408 14.336 31.232 31.232 31.232h397.824c17.408 0 31.232-14.336 31.232-31.232v-281.6H281.6v281.6z m334.848-206.848c0-6.656 5.632-12.288 12.288-12.288h16.896c6.656 0 12.288 5.632 12.288 12.288v16.896c0 6.656-5.632 12.288-12.288 12.288h-16.896c-6.656 0-12.288-5.632-12.288-12.288v-16.896z m0 83.968c0-6.656 5.632-12.288 12.288-12.288h16.896c6.656 0 12.288 5.632 12.288 12.288v16.896c0 6.656-5.632 12.288-12.288 12.288h-16.896c-6.656 0-12.288-5.632-12.288-12.288v-16.896z m-83.456-83.968c0-6.656 5.632-12.288 12.288-12.288h16.896c6.656 0 12.288 5.632 12.288 12.288v16.896c0 6.656-5.632 12.288-12.288 12.288h-16.896c-6.656 0-12.288-5.632-12.288-12.288v-16.896z m0 83.968c0-6.656 5.632-12.288 12.288-12.288h16.896c6.656 0 12.288 5.632 12.288 12.288v16.896c0 6.656-5.632 12.288-12.288 12.288h-16.896c-6.656 0-12.288-5.632-12.288-12.288v-16.896z m0 83.456c0-6.656 5.632-12.288 12.288-12.288h16.896c6.656 0 12.288 5.632 12.288 12.288v16.896c0 6.656-5.632 12.288-12.288 12.288h-16.896c-6.656 0-12.288-5.632-12.288-12.288v-16.896z m-83.456-167.424c0-6.656 5.632-12.288 12.288-12.288h16.896c6.656 0 12.288 5.632 12.288 12.288v16.896c0 6.656-5.632 12.288-12.288 12.288h-16.896c-6.656 0-12.288-5.632-12.288-12.288v-16.896z m0 83.968c0-6.656 5.632-12.288 12.288-12.288h16.896c6.656 0 12.288 5.632 12.288 12.288v16.896c0 6.656-5.632 12.288-12.288 12.288h-16.896c-6.656 0-12.288-5.632-12.288-12.288v-16.896z m0 83.456c0-6.656 5.632-12.288 12.288-12.288h16.896c6.656 0 12.288 5.632 12.288 12.288v16.896c0 6.656-5.632 12.288-12.288 12.288h-16.896c-6.656 0-12.288-5.632-12.288-12.288v-16.896z m-83.968-83.456c0-6.656 5.632-12.288 12.288-12.288h16.896c6.656 0 12.288 5.632 12.288 12.288v16.896c0 6.656-5.632 12.288-12.288 12.288h-16.896c-6.656 0-12.288-5.632-12.288-12.288v-16.896z m0 83.456c0-6.656 5.632-12.288 12.288-12.288h16.896c6.656 0 12.288 5.632 12.288 12.288v16.896c0 6.656-5.632 12.288-12.288 12.288h-16.896c-6.656 0-12.288-5.632-12.288-12.288v-16.896zM399.36 355.328h16.384c6.656 0 12.288-5.632 12.288-12.8V263.68c0-6.656-5.632-12.8-12.288-12.8H399.36c-6.656 0-12.288 5.632-12.288 12.8V343.04c-1.024 6.656 5.12 12.288 12.288 12.288z" fill="#FFFFFF" /></svg>