<?xml version="1.0" standalone="no"?><!DOCTYPE svg PUBLIC "-//W3C//DTD SVG 1.1//EN" "http://www.w3.org/Graphics/SVG/1.1/DTD/svg11.dtd"><svg class="icon" width="200px" height="200.00px" viewBox="0 0 1024 1024" version="1.1" xmlns="http://www.w3.org/2000/svg"><path d="M1024 512c0 282.624-229.376 512-512 512S0 794.624 0 512 229.376 0 512 0s512 229.376 512 512z" fill="#00C853" /><path d="M777.728 539.648L660.48 415.744l-7.68-8.192C596.992 348.16 543.744 291.84 543.744 291.84c-8.704-7.68-20.48-11.264-31.744-9.728H296.448c-22.016 0.512-39.936 18.432-39.936 40.448v201.216c0 12.288 6.144 24.064 16.384 31.232l241.664 248.32c20.992 20.992 55.296 20.992 76.288 0l187.904-187.904 2.048-2.048c17.92-21.504 17.408-53.76-3.072-73.728zM384 435.2c-20.992 0-38.4-17.408-38.4-38.4S363.008 358.4 384 358.4s38.4 17.408 38.4 38.4S404.992 435.2 384 435.2z m268.288 152.064l-90.624 90.624c-10.24 10.24-26.112 10.24-36.352 0s-10.24-26.112 0-36.352l90.624-90.624c10.24-10.24 26.112-10.24 36.352 0 9.728 10.24 9.728 26.624 0 36.352z" fill="#FFFFFF" /></svg>