<?xml version="1.0" standalone="no"?><!DOCTYPE svg PUBLIC "-//W3C//DTD SVG 1.1//EN" "http://www.w3.org/Graphics/SVG/1.1/DTD/svg11.dtd"><svg class="icon" width="200px" height="200.00px" viewBox="0 0 1024 1024" version="1.1" xmlns="http://www.w3.org/2000/svg"><path d="M1024 512c0 282.624-229.376 512-512 512S0 794.624 0 512 229.376 0 512 0s512 229.376 512 512z" fill="#FFD600" /><path d="M657.92 288.256c8.192 0 15.36 3.584 19.968 9.216L793.088 363.52c12.8 7.168 16.896 23.552 9.728 36.352l-44.032 75.264c-7.168 12.8-23.552 16.896-36.352 9.728l-38.4-22.016v246.784c0 14.848-11.776 26.624-26.624 26.624h-291.84c-14.848 0-26.624-11.776-26.624-26.624V462.848l-37.888 22.016c-12.288 6.656-27.136 3.584-34.816-7.68l-1.024-1.536L221.184 399.36c-7.168-12.8-3.072-28.672 9.728-36.352L346.112 296.96c5.12-5.632 11.776-9.216 19.968-9.216h35.328c10.24 31.744 55.808 55.808 110.592 55.808s99.84-24.064 110.592-55.808h29.184c2.048 0 4.096 0 6.144 0.512z" fill="#FFFFFF" /></svg>