<?xml version="1.0" standalone="no"?><!DOCTYPE svg PUBLIC "-//W3C//DTD SVG 1.1//EN" "http://www.w3.org/Graphics/SVG/1.1/DTD/svg11.dtd"><svg class="icon" width="200px" height="200.00px" viewBox="0 0 1024 1024" version="1.1" xmlns="http://www.w3.org/2000/svg"><path d="M512 0c282.624 0 512 229.376 512 512s-229.376 512-512 512S0 794.624 0 512 229.376 0 512 0" fill="#FF0808" /><path d="M768 411.648c-11.776-13.824-29.184-22.016-47.104-21.504h-117.248c9.728-34.816 10.752-71.168 3.072-106.496-0.512-2.56-2.048-5.12-3.584-7.68-12.288-35.328-50.688-54.272-86.016-41.984-26.112 9.216-44.544 33.28-45.568 60.928H471.04v15.36c-0.512 39.424-29.184 72.704-68.096 78.848v366.08H675.84c23.552-0.512 44.032-17.408 49.664-40.448l53.76-252.416c4.096-17.92 0-36.352-11.264-50.688zM288.768 390.144c-25.088 0-45.568 20.48-45.568 45.568v273.408c0 25.088 19.968 45.568 45.568 46.08h68.608V390.144H288.768z" fill="#FFFFFF" /></svg>