<?xml version="1.0" standalone="no"?><!DOCTYPE svg PUBLIC "-//W3C//DTD SVG 1.1//EN" "http://www.w3.org/Graphics/SVG/1.1/DTD/svg11.dtd"><svg class="icon" width="200px" height="200.00px" viewBox="0 0 1024 1024" version="1.1" xmlns="http://www.w3.org/2000/svg"><path d="M512 0c282.624 0 512 229.376 512 512s-229.376 512-512 512S0 794.624 0 512 229.376 0 512 0"  /><path d="M693.248 307.2c40.448 0 73.216 39.424 74.752 88.576V448.512h-64.512c-42.496 0-76.288 34.304-76.288 76.288 0 41.472 32.768 75.264 73.728 76.8H768v49.152c0 49.664-32.256 90.112-72.192 91.648H330.752c-40.448 0-73.216-39.424-74.752-88.576V398.848c0-49.664 32.256-89.6 72.192-91.648h365.056z" fill="#FFFFFF" /><path d="M704 486.4H768v76.8h-64c-20.992 0-38.4-17.408-38.4-38.4s17.408-38.4 38.4-38.4z"  /></svg>
