<?xml version="1.0" standalone="no"?><!DOCTYPE svg PUBLIC "-//W3C//DTD SVG 1.1//EN" "http://www.w3.org/Graphics/SVG/1.1/DTD/svg11.dtd"><svg class="icon" width="200px" height="200.00px" viewBox="0 0 1024 1024" version="1.1" xmlns="http://www.w3.org/2000/svg"><path d="M1024 512c0 282.624-229.376 512-512 512S0 794.624 0 512 229.376 0 512 0s512 229.376 512 512z" fill="#2962FF" /><path d="M664.576 329.728h-48.64c-4.608-35.84-35.328-64-71.68-64H480.768c-36.864 0-67.584 28.16-71.68 64h-48.128c-51.712 0-93.696 42.496-93.696 94.72 0 0 1.024 40.96 1.536 53.76 0 2.048 1.536 4.608 3.584 5.632l23.552 16.384c41.984 27.648 88.576 46.08 137.728 55.808 3.072 1.024 6.656-0.512 8.192-3.584 14.336-25.088 40.96-40.448 70.144-40.448 28.672 0 55.808 15.36 70.144 40.448 1.536 3.072 4.608 4.608 8.192 4.096 50.688-9.728 97.792-28.672 138.752-56.32 1.024-1.024 11.776-8.192 23.552-16.896 2.56-1.536 3.584-3.584 3.584-6.144 0.512-30.72 2.048-52.736 2.048-52.736 0-52.224-41.984-94.72-93.696-94.72z m-218.624 0.512c4.608-15.872 17.92-27.136 34.816-27.136h62.976c16.384 0.512 30.72 11.264 34.816 27.136H445.952z" fill="#FFFFFF" /><path d="M754.176 533.504c-1.536-1.024-3.584-0.512-4.096 0l-1.024 0.512c-49.664 33.28-109.568 55.296-172.032 64.512-9.216 1.024-17.408-4.608-19.968-13.312-5.12-19.968-23.04-34.304-43.52-33.792h-1.024c-20.992 0-38.4 13.312-43.52 33.792-2.56 8.704-11.264 14.336-19.968 13.312-62.976-9.216-122.368-31.232-172.032-64.512-0.512-0.512-2.56-1.536-4.608-0.512-2.048 1.024-2.048 4.096-2.048 4.096l1.536 126.976c0 52.224 41.472 94.72 93.184 94.72h295.936c51.712 0 93.184-42.496 93.184-94.72l2.048-126.976s0-3.584-2.048-4.096z m-223.232 103.936c0 10.24-7.68 18.944-18.432 18.944s-18.432-8.192-18.432-18.944v-31.744c0-10.24 8.192-18.944 18.432-18.944s18.432 8.192 18.432 18.944v31.744z" fill="#FFFFFF" /></svg>